<?xml version="1.0" encoding="UTF-8" standalone="no"?>
<!-- Created with Inkscape (http://www.inkscape.org/) -->

<svg
   width="200"
   height="200"
   viewBox="0 0 200 200"
   id="svg2"
   version="1.1"
   xml:space="preserve"
   sodipodi:docname="Y-negative-160-40px.svg"
   inkscape:version="1.2.2 (1:1.2.2+202212051552+b0a8486541)"
   inkscape:export-filename="Y-negative-160-40px.png"
   inkscape:export-xdpi="96"
   inkscape:export-ydpi="96"
   xmlns:inkscape="http://www.inkscape.org/namespaces/inkscape"
   xmlns:sodipodi="http://sodipodi.sourceforge.net/DTD/sodipodi-0.dtd"
   xmlns="http://www.w3.org/2000/svg"
   xmlns:svg="http://www.w3.org/2000/svg"><sodipodi:namedview
     id="namedview5"
     pagecolor="#404040"
     bordercolor="#000000"
     borderopacity="0.25"
     inkscape:showpageshadow="2"
     inkscape:pageopacity="0"
     inkscape:pagecheckerboard="0"
     inkscape:deskcolor="#d1d1d1"
     showgrid="false"
     inkscape:zoom="3.3984375"
     inkscape:cx="60.468966"
     inkscape:cy="128"
     inkscape:window-width="1920"
     inkscape:window-height="1020"
     inkscape:window-x="0"
     inkscape:window-y="0"
     inkscape:window-maximized="1"
     inkscape:current-layer="svg2" /><defs
     id="defs4" /><path
     id="circle"
     style="fill:#ffffff;fill-opacity:1;stroke:none;stroke-width:0;stroke-miterlimit:4;stroke-dasharray:none"
     d="m 100,20 a 80,80 0 0 0 -80,80 80,80 0 0 0 80,80 80,80 0 0 0 80,-80 80,80 0 0 0 -80,-80 z M 47.5,51.25 h 15 v 67.5 c 0,8.37309 6.626921,15 15,15 h 15 v 15 h -15 c -16.479653,0 -30,-13.52034 -30,-30 z m 52.5,7.5 c 5.76359,0 11.00012,2.277122 15,5.898437 3.99988,-3.621315 9.23641,-5.898437 15,-5.898437 12.33754,0 22.5,10.162469 22.5,22.5 v 37.5 c 0,16.47966 -13.52034,30 -30,30 h -15 v -15 h 15 c 8.37309,0 15,-6.62691 15,-15 v -37.5 c 0,-4.23095 -3.26905,-7.5 -7.5,-7.5 -4.23095,0 -7.5,3.26905 -7.5,7.5 v 37.5 h -15 v -37.5 c 0,-4.23095 -3.26904,-7.5 -7.5,-7.5 -4.23095,0 -7.5,3.26905 -7.5,7.5 v 37.5 h -15 v -37.5 c 0,-12.337531 10.16247,-22.5 22.5,-22.5 z" /></svg>
